<?xml version="1.0" standalone="no"?>
<!DOCTYPE svg PUBLIC "-//W3C//DTD SVG 20010904//EN"
 "http://www.w3.org/TR/2001/REC-SVG-20010904/DTD/svg10.dtd">
<svg version="1.0" xmlns="http://www.w3.org/2000/svg"
 width="1156.000000pt" height="1192.000000pt" viewBox="0 0 1156.000000 1192.000000"
 preserveAspectRatio="xMidYMid meet">
 <rect width="100%" height="100%" fill="#0F52BA"/>

<g transform="translate(0.000000,1192.000000) scale(0.100000,-0.100000)"
fill="#fff" stroke="none">
<path d="M7145 10004 c-192 -40 -321 -105 -453 -229 -135 -125 -204 -269 -263
-542 -26 -118 -28 -218 -32 -1645 -2 -767 -5 -960 -15 -970 -10 -10 -126 -14
-545 -16 -293 -2 -557 1 -587 5 l-55 8 -5 1215 c-6 1349 0 1240 -72 1385 -143
291 -398 484 -769 584 -171 46 -387 52 -939 25 -179 -8 -411 -18 -517 -22
-106 -5 -195 -11 -198 -14 -13 -13 44 -57 105 -81 126 -48 356 -145 425 -179
280 -137 507 -314 620 -483 63 -95 85 -141 123 -258 l27 -82 3 -1120 c1 -616
0 -1130 -3 -1142 -7 -29 -65 -62 -241 -138 -148 -65 -280 -133 -374 -193 -30
-19 -71 -45 -90 -57 -142 -88 -296 -199 -335 -241 -5 -5 -41 -35 -80 -66 -144
-116 -395 -398 -509 -573 -52 -79 -193 -355 -218 -425 -40 -115 -100 -347
-104 -405 -20 -297 -15 -438 22 -640 27 -150 111 -400 177 -530 33 -64 221
-328 270 -380 7 -7 48 -54 92 -105 69 -80 200 -196 300 -266 208 -145 320
-211 465 -272 319 -134 549 -188 845 -199 143 -5 170 -3 250 16 117 29 291
114 377 185 118 98 202 230 278 436 69 188 63 51 70 1605 l5 1410 330 7 c422
8 829 0 853 -18 16 -12 17 -97 22 -1336 l5 -1323 28 -90 c40 -129 120 -288
170 -339 40 -39 138 -122 230 -193 100 -78 358 -180 514 -203 44 -7 201 -13
363 -14 328 -1 1049 13 1130 23 l55 7 -60 38 c-33 22 -120 66 -194 98 -339
147 -658 340 -789 477 -124 130 -219 325 -252 521 -7 45 -10 439 -8 1289 l3
1224 150 49 c237 76 371 135 598 265 246 140 531 402 673 618 144 221 244 446
313 707 32 120 41 221 47 508 7 295 -1 371 -56 590 -40 163 -73 243 -170 420
-110 199 -214 335 -389 511 -188 188 -284 252 -536 364 -246 109 -401 155
-635 190 -58 9 -132 20 -165 25 -91 14 -149 11 -280 -16z m728 -905 c145 -49
238 -99 347 -186 199 -161 297 -290 344 -454 73 -250 58 -657 -34 -941 -24
-73 -121 -266 -170 -337 -94 -137 -321 -324 -504 -415 -108 -53 -219 -96 -251
-96 -19 0 -18 -84 -15 1225 2 1205 -2 1130 63 1179 67 51 123 58 220 25z
m-3875 -4822 c2 -661 0 -1225 -3 -1254 -5 -38 -15 -61 -38 -88 -31 -36 -36
-38 -109 -43 -179 -11 -426 73 -592 203 -219 171 -332 359 -397 665 -30 141
-34 494 -6 605 78 312 368 688 702 910 194 128 408 235 430 214 7 -7 11 -428
13 -1212z"/>
<path d="M0 20 c0 -20 7 -20 5780 -20 5773 0 5780 0 5780 20 0 20 -7 20 -5780
20 -5773 0 -5780 0 -5780 -20z"/>
</g>
</svg>
